<svg width="128" height="133" viewBox="0 0 128 133" fill="none" xmlns="http://www.w3.org/2000/svg">
<path d="M6.17132 126.764C14.465 135.258 26.2577 135.321 34.9067 125.432C45.1909 113.565 57.6529 90.1386 74.1735 73.2231C84.9088 62.2701 94.1014 69.0046 106.259 64.3745L96.1835 29.2333C94.8859 24.648 95.7218 20.1479 101.925 18.4684L120.664 13.2625C119.806 12.0144 118.795 10.7609 117.512 9.48458C105.724 -2.60571 85.6885 -3.29134 73.7827 8.31542C56.0833 25.6352 70.9004 44.1053 55.9035 59.4636C42.0412 73.6602 18.6819 87.1854 7.39099 97.292C-2.29349 105.964 -2.20942 118.185 6.17132 126.764ZM20.2635 118.462C16.882 118.462 14.157 115.757 14.157 112.291C14.157 108.873 16.882 106.124 20.2635 106.124C23.6015 106.124 26.2019 108.873 26.2019 112.291C26.2019 115.757 23.6015 118.462 20.2635 118.462ZM75.8948 40.8802C75.1673 41.1095 74.4491 40.654 74.2596 39.9028C74.0762 39.2119 74.4866 38.4254 75.211 38.2376L86.8456 35.0454C87.6043 34.8192 88.2881 35.2363 88.512 36.0197C88.6984 36.6816 88.285 37.465 87.5606 37.6943L75.8948 40.8802ZM77.3038 47.3288C76.5763 47.5166 75.8988 47.1027 75.6686 46.3513C75.4853 45.6191 75.8956 44.874 76.62 44.6447L88.2952 41.4527C89.0539 41.2677 89.6971 41.6852 89.921 42.427C90.1075 43.1305 89.6945 43.9134 88.9701 44.1016L77.3038 47.3288ZM78.7129 53.7358C77.9885 53.9651 77.3016 53.5065 77.0808 52.7587C76.9006 52.0585 77.3078 51.281 78.0322 51.0933L89.7043 47.9044C90.4318 47.6719 91.1124 48.0921 91.3332 48.8723C91.5139 49.5694 91.1035 50.3176 90.3448 50.5438L78.7129 53.7358ZM108.666 63.249C111.666 61.7859 114.831 59.4562 118.252 56.0486C123.542 50.7096 126.706 43.3748 127.24 36.9582L108.031 42.1908C105.788 42.8121 103.971 42.6079 102.596 42.0881L108.666 63.249Z" fill="white" />
</svg>
